<svg width="73" height="73" viewBox="0 0 73 73" fill="none" xmlns="http://www.w3.org/2000/svg">
<path fill-rule="evenodd" clip-rule="evenodd" d="M68 17.2807C68 10.4982 62.5018 5 55.7193 5H17.2807C10.4982 5 5 10.4982 5 17.2807V55.7193C5 62.5018 10.4982 68 17.2807 68H55.7193C62.5018 68 68 62.5018 68 55.7193V17.2807ZM37.0072 62.2105C50.8712 62.2105 62.1102 51.1422 62.1102 37.4888C62.1102 23.8354 50.8712 12.7671 37.0072 12.7671C23.1431 12.7671 11.9041 23.8354 11.9041 37.4888C11.9041 51.1422 23.1431 62.2105 37.0072 62.2105ZM52.9042 36.8281C52.9042 45.3256 45.8934 52.3114 37.1245 52.3114C28.3556 52.3114 21.3448 45.3256 21.3448 36.8281C21.3448 28.3306 28.3556 21.3448 37.1245 21.3448C45.8934 21.3448 52.9042 28.3306 52.9042 36.8281ZM56.6357 36.8281C56.6357 47.4402 47.9002 56.0429 37.1245 56.0429C26.3487 56.0429 17.6133 47.4402 17.6133 36.8281C17.6133 26.2161 26.3487 17.6133 37.1245 17.6133C47.9002 17.6133 56.6357 26.2161 56.6357 36.8281ZM42.7797 43.2693C46.2909 39.758 46.2912 34.1667 42.9048 30.7803C39.5184 27.3938 33.9271 27.3941 30.4158 30.9054C26.9045 34.4167 26.9042 40.008 30.2907 43.3944C33.6771 46.7808 39.2684 46.7805 42.7797 43.2693ZM44.7109 45.2005C49.2608 40.6506 49.3168 33.3298 44.836 28.849C40.3553 24.3682 33.0345 24.4243 28.4846 28.9742C23.9347 33.5241 23.8786 40.8449 28.3594 45.3256C32.8402 49.8064 40.161 49.7504 44.7109 45.2005Z" fill="#BBBBBB"/>
</svg>
