<svg width="152" height="154" viewBox="0 0 152 154" fill="none" xmlns="http://www.w3.org/2000/svg">
<path fill-rule="evenodd" clip-rule="evenodd" d="M75.59 153.339C92.3872 153.339 107.905 147.782 120.453 138.382C113.976 140.603 107.038 141.807 99.8221 141.807C98.0158 141.807 96.2269 141.732 94.4582 141.584C87.8168 143.802 80.7194 145.003 73.3456 145.003C36.1005 145.003 5.90744 114.378 5.90744 76.6011C5.90744 38.824 36.1005 8.19962 73.3456 8.19962C80.5571 8.19962 87.5042 9.34771 94.0189 11.4735C95.9305 11.3003 97.8661 11.2118 99.8221 11.2118C106.744 11.2118 113.41 12.3198 119.659 14.3704C107.253 5.32611 92.0345 0 75.59 0C33.8428 0 0 34.3262 0 76.6697C0 119.013 33.8428 153.339 75.59 153.339ZM151.18 76.6697C151.18 68.1852 149.821 60.0225 147.312 52.3934C141.404 40.3757 131.22 30.943 118.834 26.1027C132.323 38.6099 140.784 56.6033 140.784 76.6011C140.784 96.4302 132.465 114.289 119.174 126.782C131.623 121.816 141.814 112.199 147.62 99.989C149.932 92.6357 151.18 84.8005 151.18 76.6697ZM127.909 76.6011C127.909 101.528 111.836 122.436 89.8507 129.536C79.5819 127.546 70.3356 122.539 63.0653 115.44C67.0429 116.773 71.2951 117.495 75.7135 117.495C97.9537 117.495 115.983 99.2081 115.983 76.6503C115.983 54.0924 97.9537 35.8057 75.7135 35.8057C71.1333 35.8057 66.7316 36.5813 62.6293 38.01C69.8814 30.765 79.1629 25.6303 89.4958 23.5528C111.663 30.5416 127.909 51.5401 127.909 76.6011ZM49.1625 92.6283C47.6025 87.5443 46.7609 82.1316 46.7609 76.5095C46.7609 71.1048 47.5387 65.8936 48.9847 60.982C54.3307 51.5444 64.3503 45.2457 75.7135 45.2457C92.6143 45.2457 106.543 59.1793 106.543 76.6503C106.543 94.1212 92.6143 108.055 75.7135 108.055C64.4751 108.055 54.5509 101.894 49.1625 92.6283ZM35.4475 77.1826C35.6746 99.9879 47.4278 119.994 65.0806 131.492C38.989 127.447 18.7827 104.551 18.7827 76.6011C18.7827 48.7832 38.7991 25.9709 64.7122 21.7683C47.0919 33.4186 35.4442 53.5844 35.4442 76.5095C35.4442 76.5357 35.4442 76.5619 35.4442 76.5881C35.4442 76.6088 35.4442 76.6295 35.4442 76.6503C35.4442 76.828 35.4453 77.0054 35.4475 77.1826Z" fill="#4B3F72"/>
<path d="M93.2487 76.6296C93.2487 86.5734 85.3123 94.5615 75.6116 94.5615C65.9109 94.5615 57.9746 86.5734 57.9746 76.6296C57.9746 66.6859 65.9109 58.6978 75.6116 58.6978C85.3123 58.6978 93.2487 66.6859 93.2487 76.6296Z" fill="#19647E" stroke="#1F2041" stroke-width="6"/>
</svg>
