<svg width="372" height="372" viewBox="0 0 372 372" fill="none" xmlns="http://www.w3.org/2000/svg">
    <path fill-rule="evenodd" clip-rule="evenodd"
        d="M25.4794 88.0605C25.4794 53.4979 53.4979 25.4794 88.0605 25.4794H283.94C318.502 25.4794 346.521 53.4979 346.521 88.0605V153.642C346.521 157.664 344.923 161.522 342.079 164.366V164.366C332.569 173.875 314.957 167.166 310.987 154.317C295.026 102.653 246.263 65.06 188.585 65.06C117.935 65.06 60.662 121.463 60.662 191.039C60.662 260.615 117.935 317.018 188.585 317.018V317.018C188.894 317.018 189.051 317.393 188.832 317.612L164.211 342.233C161.466 344.978 157.743 346.521 153.86 346.521H88.0605C53.4979 346.521 25.4794 318.502 25.4794 283.939V88.0605ZM282.921 282.921C259.451 306.391 276.073 346.521 309.265 346.521V346.521C329.84 346.521 346.521 329.84 346.521 309.265V309.265C346.521 276.073 306.391 259.451 282.921 282.921V282.921ZM284.936 214.132C282.748 221.83 277.991 228.454 272.332 234.112L237.508 268.937C231.914 274.531 225.375 279.235 217.788 281.476C208.729 284.151 199.126 285.589 189.182 285.589C134.27 285.589 89.7553 241.75 89.7553 187.672C89.7553 133.594 134.27 89.7557 189.182 89.7557C244.094 89.7557 288.609 133.594 288.609 187.672C288.609 196.841 287.33 205.716 284.936 214.132ZM189.182 266.573C233.868 266.573 269.594 230.975 269.594 187.672C269.594 144.37 233.868 108.771 189.182 108.771C144.497 108.771 108.771 144.37 108.771 187.672C108.771 230.975 144.497 266.573 189.182 266.573ZM218.638 156.853C235.895 174.11 235.893 202.603 218 220.496C200.107 238.389 171.615 238.39 154.358 221.133C137.101 203.877 137.102 175.384 154.996 157.491C172.889 139.598 201.381 139.596 218.638 156.853ZM228.48 147.012C251.313 169.845 251.028 207.151 227.842 230.337C204.656 253.523 167.35 253.808 144.516 230.975C121.683 208.141 121.968 170.835 145.154 147.649C168.34 124.464 205.646 124.178 228.48 147.012Z"
        fill="#BBBBBB" />
</svg>