<svg width="382" height="382" viewBox="0 0 382 382" fill="none" xmlns="http://www.w3.org/2000/svg">
<rect x="10.4167" y="10.4167" width="361.167" height="361.167" rx="18.5808" stroke="#EAEAEA" stroke-width="20.1667"/>
<path d="M151.136 221.519C149.987 223.353 147.154 222.544 147.147 220.379L147.022 179.822C147.008 175.377 145.656 171.04 143.142 167.375C130.824 149.419 102.702 158.18 102.765 179.954L103.067 284.431C103.102 296.632 113.004 306.503 125.206 306.503C134.606 306.503 142.635 300.646 145.847 292.386C145.899 292.253 145.962 292.124 146.038 292.003L231.095 156.243C232.245 154.409 235.077 155.218 235.084 157.382L235.223 202.389C235.236 206.833 236.588 211.17 239.102 214.834C251.419 232.789 279.539 224.025 279.473 202.253L279.154 97.5555C279.117 85.3631 269.221 75.4989 257.027 75.4989C256.177 75.4989 255.339 75.5468 254.515 75.6399C254.319 75.662 254.121 75.6597 253.926 75.6343C247.71 74.827 241.302 77.6036 237.756 83.2629L151.136 221.519Z" fill="#EAEAEA"/>
<path d="M103 98.5888C102.928 75.303 133.193 66.2053 146.367 85.4081C149.034 89.2958 150.486 93.9225 150.5 98.6369C150.539 111.626 139.837 122.176 126.846 122.176C113.806 122.176 103.04 111.628 103 98.5888Z" fill="#A4FACC"/>
<path d="M232 283.589C231.928 260.303 262.193 251.205 275.367 270.408C278.034 274.296 279.486 278.923 279.5 283.637C279.539 296.626 268.837 307.176 255.846 307.176C242.806 307.176 232.04 296.628 232 283.589Z" fill="#A4FACC"/>
</svg>
