<svg width="420" height="420" viewBox="0 0 420 420" fill="none" xmlns="http://www.w3.org/2000/svg">
    <rect x="7.5" y="7.5" width="405" height="405" stroke="#BBBBBB" stroke-width="15" />
    <path
        d="M160.9 247.589C159.485 249.848 155.996 248.851 155.988 246.186L155.834 196.232C155.817 190.758 154.152 185.416 151.055 180.901C135.883 158.786 101.246 169.577 101.323 196.395L101.695 325.077C101.739 340.103 113.934 352.262 128.963 352.262C140.541 352.262 150.43 345.048 154.386 334.875C154.45 334.71 154.528 334.552 154.622 334.403L259.385 167.19C260.8 164.931 264.289 165.928 264.297 168.594L264.468 224.028C264.485 229.501 266.15 234.842 269.246 239.356C284.417 261.47 319.052 250.676 318.97 223.861L318.577 94.907C318.531 79.89 306.343 67.7405 291.324 67.7405C290.277 67.7405 289.245 67.7994 288.229 67.9142C287.988 67.9414 287.745 67.9385 287.504 67.9072C279.848 66.9129 271.956 70.3328 267.589 77.3032L160.9 247.589Z"
        fill="#BBBBBB" />
    <path
        d="M105.795 137.349C120.943 159.43 155.604 148.764 155.521 121.987C155.475 106.994 143.232 94.8638 128.237 94.8638C113.221 94.8638 100.987 107.058 101.03 122.071C101.046 127.523 102.711 132.854 105.795 137.349Z"
        fill="#BBBBBB" />
    <path
        d="M263.963 298.191C263.881 271.474 298.606 261.035 313.72 283.068C316.78 287.528 318.446 292.837 318.463 298.246C318.508 313.149 306.228 325.254 291.324 325.254C276.361 325.254 264.009 313.151 263.963 298.191Z"
        fill="#BBBBBB" />
</svg>