<svg width="302" height="303" viewBox="0 0 302 303" fill="none" xmlns="http://www.w3.org/2000/svg">
<rect x="8.01611" y="8.57507" width="285.968" height="285.968" rx="14.7121" stroke="#EAEAEA" stroke-width="15.9678"/>
<path d="M136.081 185.755V203.774C136.081 212.014 142.76 218.694 151 218.694C159.24 218.694 165.919 212.014 165.919 203.774V185.755M151 84.4243V91.8839M198.475 104.086L193.2 109.361M103.525 104.086L108.8 109.361M91.3235 151.56H83.8639M218.136 151.56H210.677M188.298 151.56C188.298 172.159 171.599 188.858 151 188.858C130.401 188.858 113.702 172.159 113.702 151.56C113.702 130.961 130.401 114.263 151 114.263C171.599 114.263 188.298 130.961 188.298 151.56Z" stroke="#A4FACC" stroke-width="14.9192" stroke-linecap="round" stroke-linejoin="round"/>
</svg>
